<svg width="162" height="37" viewBox="0 0 162 37" fill="none" xmlns="http://www.w3.org/2000/svg">
<path d="M104.43 0.0373535H105.439L110.837 6.73977C111.197 7.20362 111.711 7.99828 111.711 7.99828H111.74C111.74 7.99828 111.65 7.22879 111.65 6.73977V0.0373535H112.687V9.33948H111.679L106.28 2.63706C105.921 2.17321 105.406 1.37856 105.406 1.37856H105.386C105.386 1.37856 105.476 2.14804 105.476 2.63706V9.33948H104.439L104.43 0.0373535Z" fill="#68666B"/>
<path d="M118.645 2.51685C120.736 2.51685 121.801 3.93356 121.801 5.59118C121.801 5.74939 121.773 6.05503 121.773 6.05503H115.966C116.011 7.763 117.334 8.69069 118.898 8.69069C119.752 8.67592 120.57 8.38839 121.201 7.88166L121.667 8.57203C120.886 9.16497 119.892 9.49385 118.861 9.49973C118.337 9.51579 117.814 9.43665 117.326 9.26724C116.837 9.09782 116.394 8.84175 116.023 8.51495C115.652 8.18815 115.361 7.79761 115.168 7.36761C114.976 6.93762 114.886 6.47737 114.904 6.01548C114.917 3.82928 116.599 2.51685 118.645 2.51685ZM120.768 5.31072C120.707 3.91917 119.747 3.27195 118.616 3.27195C117.969 3.25837 117.34 3.46102 116.855 3.83921C116.37 4.21739 116.066 4.74309 116.003 5.31072H120.768Z" fill="#68666B"/>
<path d="M123.664 7.88181C124.268 8.39989 125.078 8.69011 125.922 8.69084C126.738 8.69084 127.441 8.33127 127.441 7.63011C127.441 6.17384 123.357 6.52982 123.357 4.358C123.357 3.16423 124.582 2.517 125.946 2.517C126.37 2.49409 126.794 2.5459 127.194 2.66939C127.595 2.79289 127.963 2.98557 128.278 3.23614L127.812 3.92652C127.294 3.51471 126.615 3.29674 125.918 3.31884C125.15 3.31884 124.415 3.6101 124.415 4.35081C124.415 5.82146 128.498 5.42953 128.498 7.62292C128.498 8.70163 127.428 9.48909 125.913 9.48909C125.397 9.501 124.884 9.42152 124.403 9.25537C123.923 9.08922 123.485 8.83978 123.116 8.52184L123.664 7.88181Z" fill="#68666B"/>
<path d="M130.667 3.50944H129.674V2.75434H130.703V0.834229H131.712V2.75434H133.607V3.50944H131.712V6.8211C131.712 8.38523 132.839 8.583 133.411 8.583C133.527 8.58428 133.643 8.57585 133.758 8.55783V9.38484C133.613 9.40326 133.467 9.41167 133.321 9.41001C132.447 9.41001 130.687 9.15831 130.687 6.93256L130.667 3.50944Z" fill="#68666B"/>
<path d="M135.195 0.0373535H136.216V7.58836C136.216 8.46212 136.665 8.59517 137.057 8.59517C137.143 8.59958 137.229 8.59958 137.314 8.59517V9.38622C137.19 9.4023 137.065 9.41071 136.939 9.41139C136.306 9.41139 135.195 9.2388 135.195 7.78253V0.0373535Z" fill="#68666B"/>
<path d="M142.002 2.5184C144.093 2.5184 145.159 3.93511 145.159 5.59274C145.159 5.75095 145.13 6.05659 145.13 6.05659H139.324C139.369 7.76455 140.692 8.69225 142.256 8.69225C143.108 8.67792 143.926 8.39027 144.555 7.88321L145.02 8.57359C144.242 9.16493 143.251 9.49371 142.223 9.50129C141.698 9.51735 141.176 9.43821 140.687 9.2688C140.199 9.09938 139.755 8.84331 139.384 8.51651C139.013 8.18971 138.722 7.79916 138.53 7.36917C138.338 6.93917 138.248 6.47892 138.266 6.01703C138.27 3.83084 139.957 2.5184 142.002 2.5184ZM144.122 5.31227C144.06 3.92073 143.101 3.2735 141.97 3.2735C141.324 3.26268 140.698 3.46657 140.216 3.84449C139.734 4.22241 139.431 4.74654 139.369 5.31227H144.122ZM142.545 0.0373535H143.734L142.439 1.61228H141.508L142.545 0.0373535Z" fill="#68666B"/>
<path d="M104.43 13.5415H105.439L110.837 20.2439C111.197 20.7078 111.711 21.5024 111.711 21.5024H111.74C111.74 21.5024 111.65 20.7329 111.65 20.2439V13.5415H112.687V22.8508H111.679L106.28 16.1484C105.921 15.6846 105.406 14.8899 105.406 14.8899H105.386C105.386 14.8899 105.476 15.6594 105.476 16.1484V22.8508H104.439L104.43 13.5415Z" fill="#68666B"/>
<path d="M115.305 16.1914H116.326V20.1898C116.326 21.2362 116.505 22.1639 117.959 22.1639C119.69 22.1639 120.756 20.8263 120.756 19.3844V16.1914H121.777V22.8543H120.785V21.8619C120.785 21.5706 120.813 21.3333 120.813 21.3333H120.785C120.528 21.8358 120.111 22.2621 119.585 22.5607C119.059 22.8593 118.446 23.0175 117.82 23.0161C116.044 23.0161 115.292 22.1675 115.292 20.4344V16.1914H115.305Z" fill="#68666B"/>
<path d="M124.358 17.0256H123.353V16.2705H124.362V14.3503H125.395V16.2705H127.29V17.0256H125.395V20.3372C125.395 21.9014 126.522 22.0991 127.094 22.0991C127.21 22.1004 127.326 22.092 127.441 22.0739V22.883C127.296 22.9014 127.15 22.9098 127.004 22.9082C126.13 22.9082 124.37 22.6565 124.37 20.4307L124.358 17.0256Z" fill="#68666B"/>
<path d="M128.96 16.1916H129.968V17.371C129.968 17.6623 129.94 17.8996 129.94 17.8996H129.968C130.328 16.8928 131.173 16.1233 132.361 16.1233C132.499 16.1241 132.635 16.1374 132.77 16.1628V17.051C132.645 17.0349 132.52 17.0265 132.394 17.0258C131.324 17.0258 130.528 17.7665 130.197 18.7482C130.053 19.169 129.981 19.6066 129.985 20.0462V22.8545H128.964V16.1916H128.96Z" fill="#68666B"/>
<path d="M134.203 13.5415H135.273V14.667H134.203V13.5415ZM134.232 16.1915H135.252V22.8544H134.232V16.1915Z" fill="#68666B"/>
<path d="M137.817 17.0256H136.829V16.2705H137.837V14.3503H138.846V16.2705H140.741V17.0256H138.846V20.3372C138.846 21.9014 139.973 22.0991 140.545 22.0991C140.661 22.1004 140.777 22.092 140.892 22.0739V22.883C140.747 22.9014 140.601 22.9098 140.455 22.9082C139.581 22.9082 137.821 22.6565 137.821 20.4307L137.817 17.0256Z" fill="#68666B"/>
<path d="M142.386 13.5415H143.456V14.667H142.386V13.5415ZM142.419 16.1915H143.44V22.8544H142.419V16.1915Z" fill="#68666B"/>
<path d="M149.279 16.0332C150.063 16.0397 150.828 16.2508 151.476 16.6399C152.124 17.029 152.626 17.5787 152.92 18.2193C153.213 18.8599 153.284 19.5627 153.123 20.2387C152.963 20.9148 152.578 21.5338 152.018 22.0174C151.458 22.501 150.748 22.8274 149.977 22.9554C149.206 23.0835 148.41 23.0073 147.688 22.7366C146.966 22.4659 146.352 22.0129 145.923 21.4347C145.494 20.8566 145.269 20.1793 145.277 19.4887C145.277 19.029 145.38 18.5738 145.582 18.1498C145.784 17.7258 146.08 17.3416 146.453 17.0197C146.825 16.6979 147.267 16.4448 147.753 16.2754C148.238 16.106 148.757 16.0236 149.279 16.0332ZM149.279 22.2035C149.676 22.1993 150.069 22.1254 150.433 21.9861C150.798 21.8467 151.127 21.6447 151.401 21.3918C151.676 21.139 151.89 20.8404 152.032 20.5136C152.174 20.1868 152.24 19.8384 152.227 19.4887C152.227 18.8002 151.917 18.1398 151.364 17.653C150.811 17.1661 150.061 16.8926 149.279 16.8926C148.497 16.8926 147.747 17.1661 147.194 17.653C146.641 18.1398 146.331 18.8002 146.331 19.4887C146.318 19.8384 146.384 20.1868 146.526 20.5136C146.668 20.8404 146.882 21.139 147.157 21.3918C147.431 21.6447 147.761 21.8467 148.125 21.9861C148.489 22.1254 148.882 22.1993 149.279 22.2035Z" fill="#68666B"/>
<path d="M155.159 16.1915H156.168V17.1839C156.168 17.4751 156.139 17.7124 156.139 17.7124H156.168C156.427 17.2005 156.852 16.7676 157.389 16.4681C157.927 16.1686 158.554 16.016 159.19 16.0296C161.056 16.0296 161.717 16.9681 161.717 18.6114V22.8507H160.696V18.8523C160.696 17.8059 160.517 16.8782 159.063 16.8782C158.433 16.8808 157.822 17.0666 157.324 17.4067C156.826 17.7467 156.47 18.2221 156.311 18.7588C156.225 19.0522 156.185 19.3547 156.192 19.6577V22.8507H155.171V16.1915H155.159Z" fill="#68666B"/>
<path d="M104.43 26.5974H105.468V35.9067H104.43V26.5974Z" fill="#68666B"/>
<path d="M108.126 29.2475H109.135V30.2399C109.135 30.5312 109.106 30.7685 109.106 30.7685H109.135C109.392 30.256 109.817 29.8225 110.355 29.5229C110.893 29.2233 111.52 29.0711 112.156 29.0857C114.022 29.0857 114.684 30.0242 114.684 31.6674V35.9067H113.663V31.9083C113.663 30.862 113.483 29.9343 112.03 29.9343C111.4 29.9368 110.788 30.1226 110.291 30.4627C109.793 30.8028 109.437 31.2781 109.277 31.8148C109.191 32.1083 109.151 32.4107 109.159 32.7138V35.9067H108.138V29.2475H108.126Z" fill="#68666B"/>
<path d="M116.914 34.4506C117.518 34.9687 118.328 35.2589 119.172 35.2596C119.988 35.2596 120.691 34.9 120.691 34.1809C120.691 32.7426 116.607 33.0806 116.607 30.9088C116.607 29.715 117.832 29.0678 119.196 29.0678C119.62 29.0449 120.044 29.0967 120.444 29.2202C120.845 29.3437 121.213 29.5364 121.528 29.7869L121.062 30.4773C120.544 30.0655 119.865 29.8475 119.168 29.8696C118.4 29.8696 117.665 30.1609 117.665 30.9016C117.665 32.3722 121.748 31.9803 121.748 34.1737C121.748 35.2524 120.683 36.0399 119.163 36.0399C118.647 36.0518 118.134 35.9723 117.653 35.8062C117.173 35.64 116.735 35.3906 116.366 35.0726L116.914 34.4506Z" fill="#68666B"/>
<path d="M123.921 30.0817H122.945V29.3266H123.953V27.4065H124.962V29.3266H126.857V30.0817H124.946V33.3934C124.946 34.9575 126.073 35.1553 126.644 35.1553C126.761 35.1565 126.877 35.1481 126.992 35.1301V35.9391C126.847 35.9576 126.701 35.966 126.555 35.9643C125.681 35.9643 123.921 35.7126 123.921 33.4869V30.0817Z" fill="#68666B"/>
<path d="M128.49 26.5974H129.56V27.7229H128.49V26.5974ZM128.519 29.2475H129.54V35.9103H128.519V29.2475Z" fill="#68666B"/>
<path d="M132.104 30.0817H131.112V29.3266H132.12V27.4065H133.129V29.3266H135.024V30.0817H133.129V33.3934C133.129 34.9575 134.256 35.1553 134.828 35.1553C134.944 35.1565 135.06 35.1481 135.175 35.1301V35.9391C135.03 35.9576 134.884 35.966 134.738 35.9643C133.864 35.9643 132.104 35.7126 132.104 33.4869V30.0817Z" fill="#68666B"/>
<path d="M136.575 29.2473H137.596V33.2457C137.596 34.2921 137.776 35.2198 139.23 35.2198C140.961 35.2198 142.027 33.8822 142.027 32.4403V29.2473H143.048V35.9102H142.055V34.9142C142.055 34.6229 142.084 34.3856 142.084 34.3856H142.055C141.798 34.8881 141.382 35.3144 140.856 35.613C140.33 35.9116 139.717 36.0698 139.091 36.0684C137.315 36.0684 136.563 35.2198 136.563 33.4867V29.2473H136.575Z" fill="#68666B"/>
<path d="M145.628 30.0817H144.636V29.3266H145.645V27.4065H146.653V29.3266H148.548V30.0817H146.653V33.3934C146.653 34.9575 147.78 35.1553 148.352 35.1553C148.468 35.1565 148.585 35.1481 148.699 35.1301V35.9391C148.555 35.9576 148.408 35.966 148.262 35.9643C147.388 35.9643 145.628 35.7126 145.628 33.4869V30.0817Z" fill="#68666B"/>
<path d="M153.183 29.0857C155.274 29.0857 156.339 30.5024 156.339 32.1564C156.339 32.3147 156.311 32.6203 156.311 32.6203H150.504C150.549 34.3283 151.872 35.256 153.436 35.256C154.289 35.2416 155.106 34.954 155.735 34.4469L156.201 35.1373C155.422 35.7286 154.431 36.0574 153.403 36.065C152.879 36.0811 152.356 36.0019 151.868 35.8325C151.379 35.6631 150.936 35.407 150.565 35.0802C150.194 34.7534 149.903 34.3629 149.71 33.9329C149.518 33.5029 149.428 33.0426 149.446 32.5807C149.451 30.3981 151.121 29.0857 153.183 29.0857ZM155.302 31.8832C155.241 30.4916 154.281 29.8444 153.15 29.8444C152.505 29.8336 151.878 30.0375 151.396 30.4154C150.914 30.7933 150.612 31.3174 150.549 31.8832H155.302Z" fill="#68666B"/>
<path d="M36.9512 0H27.7185V0.996013H28.2085C30.826 0.996013 32.4921 1.62526 33.6232 2.62128C34.9912 3.82584 35.6649 5.55179 35.6649 8.11913V19.8124C35.6649 21.3298 35.7221 22.5883 35.7221 22.5883H35.5588C35.5588 22.5883 34.9626 21.6966 34.4277 21.017L17.9672 0H0V1.17939H6.66421V34.7202H0.00408433V35.9248H16.2399V34.9144H15.7662C13.0303 34.9144 11.3643 34.2888 10.1147 33.1849C8.68552 31.876 8.03217 30.2004 8.03217 27.3742V4.40116C8.03217 2.6033 7.91375 0.891738 7.91375 0.891738H8.03217C8.44266 1.56182 8.89951 2.20907 9.40013 2.82983L35.2648 35.9104H36.9512V0Z" fill="#004289"/>
<path d="M87.6801 34.746V1.20878H93.8829V0.0473633H82.6125L77.2142 19.119V34.746H71.2074V35.9075H93.8829V34.746H87.6801Z" fill="#004289"/>
<path d="M61.4438 0L61.9053 23.0485C59.9983 19.8987 59.0183 18.2698 55.7801 13.2322L46.9476 0H36.9553V35.9068H46.7189L46.429 13.3401C48.6002 17.1906 50.9907 20.9421 53.5913 24.5803L61.2152 35.9212H71.2074V0H61.4438Z" fill="#33CC66"/>
</svg>
